<svg width="56" height="61" viewBox="0 0 56 61" fill="none" xmlns="http://www.w3.org/2000/svg">
<path d="M35.5062 23.2973C36.9778 23.4071 38.4958 23.2293 39.9816 22.7259C44.8801 21.0665 47.9054 16.3841 47.6861 11.4595C47.6397 10.4133 47.4466 9.35752 47.0951 8.31606C45.7404 4.31007 42.3743 1.55551 38.5065 0.799165C37.9286 0.918461 37.3507 1.07474 36.7764 1.27039C32.3618 2.76518 29.1363 6.17587 27.7076 10.263L27.704 10.2725C26.9867 12.1526 26.1943 13.5818 25.3186 14.6734C24.3427 15.8914 21.9548 17.6594 19.9638 17.2717L26.6745 20.7301C26.6745 20.7301 32.5619 23.079 35.5074 23.2973L35.5062 23.2973Z" fill="url(#paint0_linear_1518_3153)"/>
<path opacity="0.23" d="M52.4726 36.6407C52.4726 36.6407 52.4678 36.6359 52.4654 36.6323C50.5756 34.4373 48.021 32.7886 45.0314 32.0323C44.8026 31.9738 44.5727 31.9201 44.3391 31.8736C44.3272 31.8712 44.3153 31.8688 44.3034 31.8664C40.264 31.0588 36.2819 32.0096 33.147 34.1915C32.0341 34.9658 31.0272 35.8963 30.1646 36.958C28.718 38.7367 27.6707 40.8853 27.1893 43.2915C26.9105 44.6896 26.8413 46.0818 26.9605 47.4323C26.9831 47.6923 27.0141 47.95 27.0511 48.2065L27.0511 48.2184C27.9054 54.1546 32.3927 59.183 38.6018 60.4249C45.8845 61.8827 52.9837 57.619 55.2572 50.7344C55.4431 50.1725 55.5968 49.5939 55.7147 48.9986C56.6287 44.4236 55.2917 39.9214 52.4714 36.6383L52.4726 36.6407Z" fill="url(#paint1_linear_1518_3153)"/>
<path d="M35.5551 41.0523C36.4773 36.4307 44.0448 30.6222 44.0448 30.6222L50.3909 26.5327C49.0612 28.0656 49.3948 31.0206 49.962 32.4749C50.4672 33.78 51.3084 35.1817 52.575 36.7433C52.5774 36.7457 52.5798 36.7481 52.5822 36.7516C52.6394 36.822 52.6965 36.8924 52.7549 36.9628C52.8455 37.0714 52.9229 37.1775 52.9909 37.2801C55.4538 40.4952 56.5714 44.7159 55.7159 49.001C55.5968 49.5963 55.4442 50.1749 55.2584 50.7368C52.6703 53.7121 48.6036 55.2546 44.4618 54.4255C38.3135 53.1955 34.3254 47.208 35.5551 41.0523Z" fill="url(#paint2_linear_1518_3153)"/>
<path d="M4.9456 41.7287C4.49043 41.3279 4.06624 40.9056 3.67303 40.4642C2.39332 36.7326 3.09275 32.4355 5.88096 29.2586C10.0192 24.5428 17.1922 24.0788 21.9012 28.2219C25.4377 31.332 27.051 48.2089 27.051 48.2089C26.3897 46.2894 23.6468 45.2408 22.105 45.0046C20.7228 44.7911 19.0904 44.8185 17.1065 45.137C17.1029 45.137 17.1005 45.1382 17.0969 45.1394C17.0076 45.1537 16.9182 45.168 16.8276 45.1835C16.6846 45.2074 16.5512 45.2229 16.4237 45.2301C12.4177 45.7502 8.21756 44.6085 4.9456 41.7299L4.9456 41.7287Z" fill="url(#paint3_linear_1518_3153)"/>
<path d="M17.7165 25.8837C13.5854 24.6263 8.91579 25.7978 5.88094 29.2574C3.09273 32.4343 2.3933 36.7313 3.67301 40.4629C-1.14557 35.0493 -1.28379 26.7629 3.6182 21.1762C7.79693 16.4151 14.3897 15.0372 19.9506 17.2657L20.4773 17.49C20.5416 17.5186 20.606 17.546 20.6691 17.5759C23.9459 18.9096 35.4168 23.5455 42.9795 11.4285L45.2101 11.4285L47.6861 11.4583C47.8374 14.8535 46.4469 18.133 43.9637 20.3865L43.872 20.4712L32.5262 30.6973L17.7177 25.8825L17.7165 25.8837Z" fill="url(#paint4_linear_1518_3153)"/>
<path d="M31.4312 30.3454C32.1139 30.5661 32.525 30.6997 32.525 30.6997L31.4312 30.3442L31.4312 30.3466L31.4312 30.3454Z" fill="url(#paint5_linear_1518_3153)"/>
<path d="M41.6867 53.4866C38.1264 51.7425 35.7279 48.2339 35.3775 44.2948L33.2518 34.1211L32.525 30.6985L35.2512 28.241L43.8708 20.4724L43.9626 20.3865C43.9626 20.3865 43.9662 20.3829 43.9685 20.3817C44.021 20.3352 44.071 20.2887 44.1211 20.2421C44.1663 20.2004 44.2104 20.1574 44.2545 20.1145C44.264 20.105 44.2748 20.0942 44.2855 20.0847C44.3332 20.0382 44.3808 19.9916 44.4273 19.9439C44.4773 19.8926 44.5262 19.8413 44.575 19.79C44.6239 19.7387 44.6727 19.6862 44.7204 19.6337C44.7681 19.5812 44.8157 19.5288 44.8622 19.4751C44.9194 19.4106 44.9766 19.3438 45.0326 19.277C45.1136 19.1816 45.1923 19.0838 45.2697 18.9848C45.3138 18.9299 45.3555 18.875 45.3972 18.8189C45.3984 18.8177 45.3996 18.8166 45.3996 18.8154C45.477 18.7116 45.5533 18.6078 45.626 18.5028C45.7142 18.3775 45.7988 18.2499 45.8822 18.1211C45.9453 18.0232 46.0061 17.923 46.0657 17.824C46.0788 17.8025 46.0907 17.7822 46.1038 17.7608C47.2155 15.8842 47.785 13.6987 47.685 11.4619C47.6385 10.4157 47.4455 9.3599 47.094 8.31844C45.7392 4.31245 42.3731 1.55789 38.5053 0.801545C45.5974 -0.669385 52.8348 3.3545 55.2155 10.3966C57.2459 16.4008 55.1404 22.807 50.4315 26.5136L50.4195 26.5231C50.2194 26.6794 50.0168 26.8321 49.8083 26.9776C47.0225 29.1465 36.1485 36.1444 42.8509 48.7648L41.6856 53.4878L41.6867 53.4866Z" fill="url(#paint6_linear_1518_3153)"/>
<path d="M27.0534 48.2208C27.0534 48.2208 27.0522 48.2161 27.051 48.2077C27.0153 47.9572 26.9855 47.7055 26.9629 47.4514C26.4815 43.9596 23.6492 32.3067 9.37335 31.808L8.48804 27.0552C11.3513 25.3027 14.8521 24.9222 18.0049 25.9756L18.0049 25.9732L32.5226 30.6973L33.2494 34.12L35.3751 44.2936C35.8089 49.186 39.4049 53.4126 44.4594 54.4243C48.6024 55.2534 52.6668 53.7109 55.256 50.7356C52.9825 57.6202 45.8833 61.8827 38.6006 60.4261C32.3927 59.183 27.9042 54.1547 27.0522 48.2197L27.0534 48.2208Z" fill="url(#paint7_linear_1518_3153)"/>
<path d="M31.4312 30.3454C32.1139 30.5661 32.525 30.6997 32.525 30.6997L31.4312 30.3442L31.4312 30.3466L31.4312 30.3454Z" fill="url(#paint8_linear_1518_3153)"/>
<path d="M31.4312 30.3454C32.1139 30.5661 32.525 30.6997 32.525 30.6997L31.4312 30.3442L31.4312 30.3466L31.4312 30.3454Z" fill="url(#paint9_linear_1518_3153)"/>
<defs>
<linearGradient id="paint0_linear_1518_3153" x1="47.6961" y1="12.0609" x2="19.9618" y2="12.0611" gradientUnits="userSpaceOnUse">
<stop offset="0.2" stop-color="#C72A2A"/>
<stop offset="1" stop-color="#AF0303"/>
</linearGradient>
<linearGradient id="paint1_linear_1518_3153" x1="27.2161" y1="49.1865" x2="55.6784" y2="43.1387" gradientUnits="userSpaceOnUse">
<stop stop-color="#FF6600"/>
<stop offset="0.5" stop-color="#FF660E"/>
<stop offset="0.99" stop-color="#FC3400"/>
</linearGradient>
<linearGradient id="paint2_linear_1518_3153" x1="45.6668" y1="26.9506" x2="45.6672" y2="54.4472" gradientUnits="userSpaceOnUse">
<stop stop-color="#52D85E"/>
<stop offset="0.771091" stop-color="#4DDC61"/>
</linearGradient>
<linearGradient id="paint3_linear_1518_3153" x1="27.0531" y1="36.7996" x2="3.05708" y2="36.7998" gradientUnits="userSpaceOnUse">
<stop stop-color="#7E55CF"/>
<stop offset="0.83" stop-color="#5E2CBE"/>
</linearGradient>
<linearGradient id="paint4_linear_1518_3153" x1="47.6967" y1="25.9448" x2="0.000588209" y2="25.9448" gradientUnits="userSpaceOnUse">
<stop stop-color="#C82A2A"/>
<stop offset="0.99" stop-color="#5E2DBE"/>
</linearGradient>
<linearGradient id="paint5_linear_1518_3153" x1="32.1299" y1="30.3474" x2="31.8262" y2="30.6912" gradientUnits="userSpaceOnUse">
<stop stop-color="#FF6600"/>
<stop offset="0.5" stop-color="#FF660E"/>
<stop offset="0.99" stop-color="#FC3400"/>
</linearGradient>
<linearGradient id="paint6_linear_1518_3153" x1="44.255" y1="0.495151" x2="44.2569" y2="53.4845" gradientUnits="userSpaceOnUse">
<stop offset="0.0570687" stop-color="#C62929"/>
<stop offset="0.91" stop-color="#53DB5C"/>
</linearGradient>
<linearGradient id="paint7_linear_1518_3153" x1="51.5" y1="54" x2="8" y2="29.5" gradientUnits="userSpaceOnUse">
<stop stop-color="#4DDC61"/>
<stop offset="0.758568" stop-color="#5E2DBE"/>
</linearGradient>
<linearGradient id="paint8_linear_1518_3153" x1="31.9778" y1="30.5187" x2="31.9771" y2="30.521" gradientUnits="userSpaceOnUse">
<stop stop-color="#FF6600"/>
<stop offset="0.5" stop-color="#FF660E"/>
<stop offset="0.99" stop-color="#FC3400"/>
</linearGradient>
<linearGradient id="paint9_linear_1518_3153" x1="32.1299" y1="30.3474" x2="31.8262" y2="30.6912" gradientUnits="userSpaceOnUse">
<stop stop-color="#FF6600"/>
<stop offset="0.5" stop-color="#FF660E"/>
<stop offset="0.99" stop-color="#FC3400"/>
</linearGradient>
</defs>
</svg>
